<svg xmlns="http://www.w3.org/2000/svg" xmlns:xlink="http://www.w3.org/1999/xlink" xmlns:fi="http://pattern.flaticon.com/" x="0" y="0" width="1500" height="750" viewBox="0 0 1750 875"><rect x="0px" y="0px" width="100%" height="100%" opacity="1" fill="#fffe65"/><defs><g transform="matrix(0.1171875 0 0 0.1171875 111 211.00000207424137)" id="L1_0"><path d="M411.363,104.139c9.883-23.763,5.163-52.161-14.163-71.489c-25.577-25.577-67.045-25.577-92.622,0  c-24.078,24.078-25.486,62.237-4.229,87.967L120.836,300.129c-25.646-24.625-66.396-24.312-91.652,0.946  c-25.578,25.577-25.578,67.044,0,92.622c19.326,19.327,47.726,24.045,71.488,14.164c-9.883,23.762-5.163,52.161,14.164,71.489  c25.576,25.577,67.044,25.577,92.621,0c25.258-25.258,25.57-66.008,0.945-91.653l179.369-179.369  c0.791,0.882,1.609,1.749,2.457,2.597c25.578,25.577,67.045,25.577,92.622,0c25.577-25.577,25.577-67.045,0-92.622  C463.526,98.975,435.125,94.257,411.363,104.139z" fill="#ffceac"/><path d="M489.924,111.231c-14.257-14.257-33.212-22.108-53.377-22.108c-3.684,0-7.331,0.262-10.93,0.784  c3.442-23.269-4.152-47.134-21.346-64.328C390.012,11.32,371.054,3.467,350.888,3.467c-20.165,0-39.124,7.853-53.383,22.111  c-13.366,13.365-21.19,31.118-22.034,49.988c-0.7,15.663,3.442,30.988,11.77,44.013L120.246,286.576  c-12.901-9.526-28.475-14.683-44.756-14.683c-20.164,0-39.121,7.853-53.378,22.11C7.854,308.262,0,327.221,0,347.386  s7.854,39.124,22.112,53.383c14.257,14.257,33.212,22.108,53.376,22.108c3.684,0,7.331-0.262,10.93-0.784  c-3.443,23.269,4.152,47.134,21.346,64.328c14.259,14.259,33.216,22.111,53.383,22.111c20.165,0,39.124-7.853,53.383-22.111  c14.067-14.067,21.918-32.768,22.107-52.658c0.157-16.551-5.001-32.378-14.679-45.478l165.934-165.934  c13.596,11.494,30.642,17.756,48.649,17.756c20.165,0,39.124-7.853,53.382-22.111C519.358,188.56,519.358,140.666,489.924,111.231z   M475.781,203.853c-10.482,10.481-24.417,16.253-39.24,16.253s-28.759-5.772-39.241-16.253c-0.695-0.696-1.397-1.437-2.084-2.204  c-1.833-2.044-4.427-3.244-7.172-3.318c-2.756-0.073-5.4,0.983-7.342,2.925l-179.37,179.369c-3.85,3.849-3.913,10.071-0.142,13.998  c20.758,21.617,20.397,56.454-0.803,77.655c-10.482,10.481-24.418,16.253-39.24,16.253c-14.823,0-28.758-5.772-39.239-16.253  c-15.959-15.958-20.669-39.737-12.002-60.577c1.555-3.739,0.701-8.048-2.162-10.912c-1.913-1.914-4.471-2.929-7.073-2.929  c-1.293,0-2.597,0.251-3.838,0.767c-6.78,2.819-13.961,4.249-21.343,4.249c-14.821,0-28.754-5.771-39.233-16.25  c-10.483-10.483-16.255-24.418-16.255-39.241c0-14.822,5.772-28.758,16.254-39.24c10.48-10.481,24.414-16.252,39.235-16.252  c14.4,0,28.044,5.486,38.419,15.449c3.926,3.769,10.148,3.708,13.998-0.143l179.513-179.512c3.646-3.646,3.922-9.466,0.638-13.441  c-18.295-22.144-16.752-54.184,3.59-74.526c10.482-10.482,24.418-16.254,39.24-16.254c14.823,0,28.758,5.772,39.24,16.254  c15.958,15.959,20.668,39.737,12.001,60.578c-1.555,3.739-0.701,8.048,2.163,10.912c2.863,2.864,7.171,3.717,10.912,2.163  c6.78-2.82,13.962-4.249,21.344-4.249c14.821,0,28.754,5.771,39.234,16.25C497.417,147.011,497.417,182.217,475.781,203.853z"/><path d="M205.137,251.186l-46.639,46.638c-3.905,3.905-3.905,10.237,0,14.143c1.953,1.953,4.511,2.929,7.071,2.929  c2.559,0,5.119-0.977,7.071-2.929l46.639-46.638c3.905-3.905,3.905-10.237,0-14.143  C215.374,247.281,209.042,247.281,205.137,251.186z"/><path d="M226.385,229.938l-0.229,0.23c-3.905,3.905-3.905,10.238,0,14.143c1.953,1.953,4.512,2.929,7.071,2.929  s5.118-0.977,7.071-2.929l0.229-0.23c3.905-3.905,3.905-10.238,0-14.143S230.29,226.033,226.385,229.938z"/></g><g transform="matrix(0.11718658357858658 0 0 0.11718658357858658 115 42.99999691011931)" id="L1_1"><g><path d="M33.683,379.26c105.681,82.134,363.595,69.546,454.642-1.148   c17.739-13.773,14.266-15.467,11.506-36.642l-13.885-106.553c-22.286,35.132-108.239,74.772-228.48,74.772   c-120.24,0-219.919-37.087-225.127-83.593l-10.186,53.211l-4.575,23.9l-5.868,30.656C6.816,359.433,12.115,362.499,33.683,379.26z" fill="#66e2e7"/><path d="M32.34,226.096c5.207,46.506,104.887,83.593,225.127,83.593c120.24,0,206.193-39.639,228.48-74.772   c-1.829-26.663-11.74-60.892-62.857-76.374c-14.396-61.965-92.573-84.915-137.872-31.676   c-30.568-75.934-128.424-59.298-139.805-0.697c-32.764-15.283-82.815,16.238-82.304,62.823   c-18.048,4.7-30.874,16.776-30.807,29.715L32.34,226.096L32.34,226.096z M133.646,199.541c11.052,0,20.012,8.959,20.012,20.012   c0,11.052-8.96,20.012-20.012,20.012c-11.053,0-20.012-8.96-20.012-20.012C113.633,208.501,122.593,199.541,133.646,199.541   L133.646,199.541z M306.434,226.492c0-13.828,11.211-25.039,25.038-25.039c13.828,0,25.039,11.211,25.039,25.039   c0,13.828-11.211,25.038-25.039,25.038C317.645,251.531,306.434,240.32,306.434,226.492L306.434,226.492z M250.357,160.475   c0,11.053-8.959,20.012-20.012,20.012s-20.012-8.959-20.012-20.012c0-11.053,8.959-20.012,20.012-20.012   S250.357,149.423,250.357,160.475z" fill="#e0ac91"/><g><circle cx="331" cy="226" r="25" fill="#9d7463"/><circle cx="230" cy="160" r="20" fill="#9d7463"/><circle cx="133" cy="219" r="20" fill="#9d7463"/></g></g><path d="M510.853,347.729c-0.343-2.215-0.732-4.726-1.101-7.552l-13.854-106.322c-1.329-18.646-6.084-33.967-14.539-46.819  c-10.771-16.37-27.576-28.575-50.003-36.331c-11.27-37.715-45.286-63.578-84.603-63.578c-21.617,0-42.031,7.948-58.741,22.644  c-16.016-27.736-43.054-43.886-74.654-43.886c-34.258,0-63.932,19.442-74.681,47.563c-3.708-0.785-7.559-1.18-11.527-1.18  c-18.189,0-37.554,8.599-51.802,23.002c-12.73,12.87-20.369,29.093-21.949,46.316c-18.961,7.158-31.191,21.467-31.11,37.173  l0.034,6.422l-9.988,52.181c-0.005,0.022-0.009,0.043-0.013,0.065L1.88,331.981c-2.473,12.916-3.056,22.751,1.668,31.862  c4.086,7.882,11.149,13.358,21.837,21.647l2.152,1.671c26.425,20.532,62.331,36.098,106.729,46.264  c36.428,8.342,77.803,12.692,120.349,12.692c4.012,0,8.037-0.039,12.068-0.117c95.208-1.835,182.488-24.82,227.777-59.985  C512.839,371.746,513.523,364.971,510.853,347.729z M65.628,198.675c4.448-1.158,7.535-5.197,7.484-9.793  c-0.159-14.598,5.689-28.641,16.469-39.539c10.568-10.685,24.614-17.063,37.573-17.063c5.104,0,9.822,0.995,14.028,2.956  c2.793,1.302,6.027,1.246,8.773-0.153c2.745-1.399,4.692-3.983,5.279-7.007c5.378-27.691,33.312-42.179,58.128-42.179  c27.913,0,51.304,16.712,62.573,44.705c1.308,3.249,4.22,5.577,7.677,6.14c3.46,0.563,6.955-0.724,9.227-3.392  c14.382-16.902,33.531-26.211,53.918-26.211c31.866,0,59.246,22.068,66.588,53.667c0.81,3.486,3.42,6.275,6.846,7.312  c44.128,13.364,53.308,40.711,55.5,64.073c-11.511,15.609-37.557,31.833-70.67,43.882c-29.598,10.771-79.224,23.608-147.551,23.608  c-123.162,0-210.364-38.281-215.124-74.217l-0.036-6.81C42.265,210.737,52.291,202.148,65.628,198.675z M491.848,360.938  c-0.969,2.523-7.281,7.426-9.659,9.272c-45.85,35.601-136.782,55.994-227.73,55.991c-82.946-0.002-165.908-16.97-214.635-54.841  l-2.17-1.684c-19.318-14.98-19.687-15.266-16.114-33.933l7.151-37.361c12.134,9.474,26.386,17.731,43.163,25.008  c1.297,0.563,2.648,0.829,3.977,0.829c3.865,0,7.548-2.253,9.185-6.027c2.199-5.069-0.128-10.963-5.197-13.161  c-19.15-8.307-34.511-17.891-46.811-29.196l3.628-18.956c12.77,14.497,33.681,27.441,61.647,37.831  c43.362,16.111,99.894,24.983,159.185,24.983c71.243,0,123.283-13.494,154.394-24.814c27.99-10.184,51.22-23.123,66.986-37.008  l11.062,84.89c0.4,3.064,0.807,5.701,1.168,8.027C491.856,355.82,492.418,359.453,491.848,360.938z"/><path d="M106.878,315.159c-0.181-0.056-0.376-0.111-0.556-0.156c-5.357-1.34-10.794,1.919-12.134,7.28  c-1.308,5.231,1.763,10.529,6.893,12.028c0.948,0.281,1.905,0.415,2.848,0.415c4.305,0,8.279-2.799,9.58-7.133  C115.088,322.327,112.123,316.778,106.878,315.159z"/><path d="M350.059,142.302c0.643,0.069,1.295,0.16,1.935,0.269c1.715,0.292,3.453,0.731,5.165,1.309  c11.237,3.783,19.281,12.842,22.072,24.852c1.073,4.622,5.189,7.744,9.738,7.744c0.749,0,1.512-0.085,2.272-0.261  c5.383-1.251,8.733-6.628,7.483-12.01c-4.331-18.643-17.482-33.331-35.175-39.29c-2.698-0.909-5.455-1.606-8.197-2.072  c-1.041-0.177-2.099-0.324-3.147-0.437c-5.495-0.585-10.428,3.382-11.021,8.876C340.59,136.776,344.564,141.71,350.059,142.302z"/><path d="M323.689,149.129c1.864,0,3.751-0.517,5.432-1.599l0.063-0.04c4.67-2.955,6.06-9.137,3.104-13.805  c-2.955-4.669-9.136-6.06-13.806-3.105l-0.326,0.21c-4.606,3.022-5.872,9.179-2.87,13.797  C317.199,147.531,320.411,149.129,323.689,149.129z"/><path d="M133.646,249.572c16.552,0,30.018-13.466,30.018-30.018s-13.466-30.018-30.018-30.018s-30.018,13.466-30.018,30.018  S117.094,249.572,133.646,249.572z M133.646,209.547c5.517,0,10.006,4.489,10.006,10.006s-4.489,10.006-10.006,10.006  s-10.006-4.489-10.006-10.006C123.64,214.036,128.129,209.547,133.646,209.547z"/><path d="M331.473,261.537c19.325,0,35.045-15.722,35.045-35.045c0-19.325-15.722-35.045-35.045-35.045  c-19.324,0-35.044,15.722-35.044,35.045C296.428,245.816,312.15,261.537,331.473,261.537z M331.473,211.459  c8.289,0,15.033,6.744,15.033,15.033s-6.744,15.033-15.033,15.033s-15.032-6.744-15.032-15.033  C316.44,218.203,323.184,211.459,331.473,211.459z"/><path d="M230.345,190.494c16.552,0,30.018-13.466,30.018-30.018s-13.466-30.018-30.018-30.018s-30.018,13.466-30.018,30.018  C200.326,177.028,213.793,190.494,230.345,190.494z M230.345,150.469c5.517,0,10.006,4.489,10.006,10.006  s-4.489,10.006-10.006,10.006s-10.006-4.489-10.006-10.006S224.827,150.469,230.345,150.469z"/></g><g transform="matrix(0.11718612909317017 0 0 0.11718612909317017 206 297.99999553685643)" id="L1_2"><g><path d="M77.421,228.956l178.57-178.569l178.568,178.569h33.711h33.711L301.767,28.882   c-25.177-25.16-66.375-25.16-91.552,0L10,228.956H43.71H77.421z" fill="#fd4a4a"/><g><ellipse cx="255px" cy="159px" rx="19px" ry="22px" fill="#ffa655"/><ellipse cx="205px" cy="189px" rx="19px" ry="22px" fill="#ffa655"/><ellipse cx="305px" cy="189px" rx="19px" ry="22px" fill="#ffa655"/><ellipse cx="255px" cy="230px" rx="34px" ry="37px" fill="#ffa655"/></g><path d="M255.99,192.976c19.329,0,34.999,16.788,34.999,37.498s-15.669,37.498-34.999,37.498   s-34.999-16.788-34.999-37.498S236.661,192.976,255.99,192.976L255.99,192.976z M285.991,189.535c0,12.426,8.954,22.5,19.999,22.5   c11.046,0,19.999-10.074,19.999-22.5c0-12.425-8.954-22.499-19.999-22.499C294.944,167.036,285.991,177.11,285.991,189.535   L285.991,189.535z M434.559,228.956L255.991,50.386L77.421,228.956H43.71l5.965,35.439l23.158,137.602h83.162   c0-54.998,44.998-99.996,99.996-99.996s99.995,44.998,99.995,99.996h83.161l23.158-137.602l5.965-35.439H434.559L434.559,228.956z    M255.99,137.037c11.046,0,19.999,10.074,19.999,22.499c0,12.426-8.954,22.499-19.999,22.499   c-11.046,0-19.998-10.073-19.998-22.499C235.992,147.11,244.944,137.037,255.99,137.037L255.99,137.037z M225.989,189.535   c0-12.425-8.954-22.499-19.998-22.499c-11.047,0-19.999,10.074-19.999,22.499c0,12.426,8.953,22.5,19.999,22.5   C217.036,212.035,225.989,201.962,225.989,189.535z" fill="#ffceac"/><g><path d="M155.995,501.993 155.995,401.997 72.833,401.997 89.663,501.993z" fill="#e0ac91"/><path d="M355.986,401.997 355.986,501.993 422.318,501.993 439.147,401.997z" fill="#e0ac91"/></g><path d="M355.986,501.993v-99.996c0-54.998-44.997-99.996-99.995-99.996S155.995,347,155.995,401.997v99.996   H355.986z" fill="#9d7463"/></g><path d="M508.681,221.516L308.835,21.809C294.77,7.753,276.003,0.013,255.991,0.013c-20.013,0-38.779,7.741-52.845,21.796  L2.932,221.883c-2.861,2.86-3.719,7.161-2.171,10.899c1.547,3.737,5.194,6.175,9.239,6.175h25.253l44.55,264.696  c0.009,0.056,0.024,0.108,0.035,0.163c0.03,0.162,0.065,0.322,0.104,0.481c0.036,0.15,0.073,0.3,0.115,0.447  c0.043,0.151,0.09,0.302,0.141,0.45c0.053,0.157,0.109,0.31,0.169,0.463c0.053,0.132,0.104,0.262,0.162,0.391  c0.074,0.169,0.156,0.333,0.239,0.497c0.055,0.107,0.108,0.214,0.167,0.319c0.102,0.182,0.211,0.358,0.324,0.532  c0.053,0.082,0.103,0.166,0.158,0.247c0.135,0.197,0.279,0.387,0.428,0.573c0.043,0.053,0.082,0.109,0.126,0.162  c0.395,0.475,0.831,0.912,1.304,1.304c0.078,0.065,0.161,0.123,0.241,0.186c0.157,0.123,0.314,0.245,0.479,0.357  c0.112,0.078,0.229,0.148,0.345,0.221c0.141,0.089,0.281,0.177,0.426,0.259c0.127,0.072,0.258,0.137,0.388,0.203  c0.144,0.073,0.287,0.144,0.435,0.21c0.132,0.059,0.266,0.115,0.401,0.168c0.157,0.062,0.315,0.12,0.476,0.174  c0.129,0.044,0.257,0.086,0.388,0.125c0.185,0.054,0.372,0.1,0.56,0.144c0.112,0.025,0.223,0.054,0.336,0.076  c0.238,0.046,0.48,0.081,0.724,0.11c0.069,0.008,0.137,0.021,0.207,0.028c0.321,0.032,0.646,0.051,0.975,0.051  c0.012,0,0.023-0.001,0.035-0.001h332.608c0.012,0,0.023,0.001,0.035,0.001c0.328,0,0.652-0.02,0.975-0.051  c0.07-0.007,0.138-0.02,0.207-0.028c0.243-0.029,0.485-0.064,0.724-0.11c0.113-0.022,0.224-0.051,0.335-0.076  c0.189-0.044,0.376-0.09,0.561-0.144c0.131-0.039,0.26-0.081,0.389-0.125c0.159-0.054,0.317-0.111,0.474-0.173  c0.136-0.054,0.271-0.11,0.404-0.169c0.146-0.065,0.288-0.136,0.43-0.207c0.132-0.067,0.264-0.133,0.392-0.206  c0.144-0.081,0.282-0.168,0.421-0.255c0.117-0.074,0.235-0.145,0.35-0.224c0.161-0.111,0.315-0.231,0.47-0.351  c0.083-0.065,0.17-0.125,0.251-0.193c0.472-0.392,0.907-0.828,1.302-1.301c0.045-0.055,0.086-0.113,0.13-0.169  c0.146-0.185,0.29-0.372,0.423-0.566c0.057-0.082,0.107-0.168,0.162-0.251c0.111-0.173,0.22-0.347,0.32-0.528  c0.06-0.106,0.113-0.215,0.169-0.323c0.083-0.162,0.163-0.326,0.237-0.493c0.059-0.129,0.111-0.261,0.163-0.393  c0.06-0.152,0.116-0.305,0.169-0.461c0.051-0.149,0.098-0.3,0.141-0.452c0.043-0.147,0.08-0.296,0.115-0.446  c0.037-0.159,0.074-0.319,0.104-0.481c0.01-0.055,0.025-0.107,0.035-0.163l44.549-264.697h25.253c0.009-0.001,0.013-0.001,0.02,0  c5.523,0,9.999-4.477,9.999-10C512,226.002,510.719,223.346,508.681,221.516z M217.283,35.956  c10.289-10.282,24.035-15.943,38.708-15.943c14.672,0,28.419,5.662,38.707,15.943l183.13,183.001h-39.126l-175.64-175.64  c-3.906-3.905-10.236-3.905-14.142,0L73.279,218.956H34.153L217.283,35.956z M427.324,411.997l-13.462,79.997h-47.876v-79.997  H427.324z M345.986,491.993H165.995v-89.996c0-49.624,40.372-89.996,89.996-89.996s89.995,40.372,89.995,89.996V491.993z   M145.996,491.993H98.121l-13.464-79.997h61.339V491.993z M453.848,254.396h-57.492c-5.523,0-10,4.477-10,10s4.477,10,10,10h54.127  l-19.793,117.603h-65.164c-5.068-55.983-52.255-99.996-109.534-99.996c-57.281,0-104.467,44.013-109.536,99.996H81.29  L61.497,274.395h54.127c5.522,0,10-4.477,10-10s-4.478-10-10-10H58.132l-2.6-15.44h21.888c2.652,0,5.195-1.054,7.071-2.929  L255.99,64.529l171.499,171.498c1.876,1.875,4.419,2.929,7.071,2.929h21.888L453.848,254.396z"/><path d="M305.99,157.037c-7.966,0-15.211,3.388-20.588,8.895c0.383-2.068,0.587-4.206,0.587-6.395  c0-17.919-13.457-32.499-29.999-32.499c-16.54,0-29.998,14.579-29.998,32.499c0,2.189,0.204,4.328,0.587,6.396  c-5.378-5.507-12.622-8.896-20.588-8.896c-16.541,0-29.999,14.579-29.999,32.499c0,17.92,13.457,32.5,29.999,32.5  c1.995,0,3.944-0.217,5.832-0.622c-0.539,2.935-0.831,5.962-0.831,9.061c0,26.19,20.185,47.498,44.998,47.498  s44.998-21.307,44.998-47.498c0-3.099-0.292-6.126-0.831-9.061c1.888,0.405,3.837,0.622,5.833,0.622  c16.541,0,29.999-14.579,29.999-32.5C335.989,171.616,322.531,157.037,305.99,157.037z M276.578,183.141  c-0.291,1.57-0.478,3.181-0.55,4.823c-1.051-0.554-2.124-1.064-3.219-1.532C274.148,185.446,275.405,184.342,276.578,183.141z   M255.99,147.036c5.421,0,10,5.724,10,12.499c0,6.776-4.579,12.499-10,12.499c-5.42,0-9.999-5.724-9.999-12.499  C245.991,152.761,250.57,147.036,255.99,147.036z M239.172,186.431c-1.096,0.468-2.169,0.978-3.22,1.532  c-0.072-1.643-0.259-3.254-0.55-4.824C236.575,184.341,237.832,185.445,239.172,186.431z M195.992,189.535  c0-6.776,4.579-12.499,10-12.499c5.42,0,9.999,5.724,9.999,12.499s-4.579,12.5-9.999,12.5  C200.57,202.036,195.992,196.311,195.992,189.535z M255.99,257.972c-13.784,0-24.999-12.335-24.999-27.499  c0-15.162,11.215-27.499,24.999-27.499c13.784,0,24.999,12.336,24.999,27.499C280.989,245.637,269.774,257.972,255.99,257.972z   M305.99,202.036c-5.421,0-10-5.725-10-12.5s4.579-12.499,10-12.499c5.421,0,10,5.724,10,12.499S311.411,202.036,305.99,202.036z"/><path d="M145.671,254.396h-0.324c-5.523,0-10,4.477-10,10s4.477,10,10,10h0.324c5.522,0,10-4.477,10-10  S151.193,254.396,145.671,254.396z"/><path d="M366.635,254.396h-0.325c-5.522,0-10,4.477-10,10s4.478,10,10,10h0.325c5.523,0,10-4.477,10-10  S372.157,254.396,366.635,254.396z"/></g><g transform="matrix(0.1171872690320015 0 0 0.1171872690320015 288 212.99999733925392)" id="L1_3"><g><g><ellipse cx="170px" cy="212px" rx="29px" ry="31px" fill="#ffceac"/><ellipse cx="255px" cy="172px" rx="29px" ry="31px" fill="#ffceac"/><ellipse cx="341px" cy="212px" rx="29px" ry="31px" fill="#ffceac"/><ellipse cx="255px" cy="312px" rx="58px" ry="58px" fill="#ffceac"/></g><path d="M341.618,180.595c16.109,0,29.169,14.154,29.169,31.612s-13.06,31.611-29.169,31.611   s-29.168-14.153-29.168-31.611S325.509,180.595,341.618,180.595L341.618,180.595z M256.001,254.448   c32.032,0,58.001,26.074,58.001,58.237c0,32.163-25.969,58.237-58.001,58.237c-32.033,0-58.002-26.074-58.002-58.237   C198,280.521,223.968,254.448,256.001,254.448L256.001,254.448z M207.246,456.207c26.815,28.185,70.695,28.185,97.511,0   l155.131-163.053c56.069-58.933,56.068-155.366-0.001-214.3c-56.068-58.932-147.817-58.932-203.885,0   c-56.07-58.932-147.818-58.932-203.888,0.001c-56.068,58.933-56.068,155.366,0,214.299L207.246,456.207L207.246,456.207z    M285.17,172.692c0,17.459-13.06,31.612-29.169,31.612s-29.169-14.153-29.169-31.612c0-17.459,13.06-31.612,29.169-31.612   S285.17,155.233,285.17,172.692L285.17,172.692z M170.383,180.595c16.11,0,29.17,14.154,29.17,31.612s-13.06,31.611-29.17,31.611   c-16.108,0-29.168-14.153-29.168-31.611S154.274,180.595,170.383,180.595z" fill="#fd4a4a"/></g><path d="M467.131,71.964c-29.023-30.506-67.799-47.305-109.186-47.305c-38.035,0-73.862,14.187-101.943,40.162  C227.919,38.845,192.092,24.66,154.057,24.66c-41.386,0-80.163,16.8-109.187,47.305c-59.826,62.882-59.826,165.199,0,228.08  l155.132,163.052c14.875,15.635,34.763,24.245,55.999,24.245s41.123-8.61,55.999-24.245l155.131-163.053  C526.958,237.163,526.958,134.847,467.131,71.964z M452.645,286.263L297.514,449.315c-11.063,11.629-25.807,18.034-41.512,18.034  s-30.45-6.404-41.513-18.034L59.357,286.263c-52.596-55.283-52.596-145.234,0-200.516c25.212-26.499,58.844-41.093,94.701-41.093  c35.856,0,69.489,14.593,94.701,41.093c1.888,1.984,4.506,3.106,7.243,3.106s5.356-1.123,7.243-3.106  c25.211-26.499,58.843-41.093,94.7-41.093c35.856,0,69.489,14.593,94.7,41.093C505.241,141.029,505.241,230.98,452.645,286.263z"/><path d="M162.75,69.524c-0.068-5.479-4.531-9.873-9.994-9.873c-0.043,0-0.086,0-0.129,0.001  c-31.16,0.391-60.425,13.33-82.406,36.431c-0.842,0.885-1.67,1.782-2.477,2.681c-0.57,0.636-1.133,1.277-1.689,1.924  c-3.6,4.186-3.126,10.498,1.06,14.099c1.888,1.624,4.207,2.418,6.515,2.418c2.812,0,5.607-1.18,7.584-3.478  c0.465-0.541,0.936-1.077,1.418-1.614c0.679-0.758,1.372-1.508,2.076-2.248c18.234-19.164,42.444-29.897,68.17-30.221  C158.399,79.576,162.819,75.044,162.75,69.524z"/><path d="M62.149,122.31c-4.951-2.45-10.946-0.422-13.395,4.526l-0.105,0.216c-2.408,4.969-0.334,10.948,4.635,13.358  c1.405,0.682,2.891,1.004,4.354,1.004c3.71,0,7.275-2.074,9.003-5.638l0.035-0.071C69.123,130.756,67.096,124.758,62.149,122.31z"/><path d="M256.001,244.45c-37.495,0-67.999,30.61-67.999,68.234s30.505,68.234,67.999,68.234c37.494,0,67.998-30.611,67.998-68.234  S293.495,244.45,256.001,244.45z M256.001,360.924c-26.47,0-48.004-21.641-48.004-48.239c0-26.599,21.535-48.238,48.004-48.238  s48.003,21.64,48.003,48.238C304.005,339.284,282.471,360.924,256.001,360.924z"/><path d="M256.001,214.301c21.597,0,39.166-18.665,39.166-41.609s-17.57-41.61-39.166-41.61s-39.166,18.666-39.166,41.61  C216.835,195.635,234.406,214.301,256.001,214.301z M256.001,151.077c10.57,0,19.171,9.697,19.171,21.615  c0,11.918-8.601,21.614-19.171,21.614c-10.57,0-19.171-9.696-19.171-21.614S245.431,151.077,256.001,151.077z"/><path d="M341.618,170.597c-21.596,0-39.165,18.666-39.165,41.61s17.57,41.609,39.165,41.609c21.597,0,39.166-18.665,39.166-41.609  C380.785,189.264,363.214,170.597,341.618,170.597z M341.618,233.821c-10.57,0-19.17-9.696-19.17-21.614  c0-11.918,8.6-21.615,19.17-21.615c10.57,0,19.171,9.697,19.171,21.615C360.79,224.125,352.189,233.821,341.618,233.821z"/><path d="M209.55,212.207c0-22.943-17.57-41.61-39.167-41.61c-21.596,0-39.165,18.666-39.165,41.61s17.57,41.609,39.165,41.609  C191.98,253.816,209.55,235.15,209.55,212.207z M170.383,233.821c-10.57,0-19.17-9.696-19.17-21.614  c0-11.918,8.6-21.615,19.17-21.615c10.571,0,19.172,9.697,19.172,21.615C189.554,224.125,180.955,233.821,170.383,233.821z"/></g><g transform="matrix(0.11718681454658508 0 0 0.11718681454658508 205 122.99999004369846)" id="L1_4"><g><path d="M64.916,157.863c45.104-17.912,113.948-29.357,191.085-29.357s145.982,11.446,191.085,29.357   c34.338-10.745,54.916-24.444,54.916-39.363c0-34.517-110.139-62.498-246.001-62.498S10,83.982,10,118.5   C10,133.419,30.578,147.117,64.916,157.863z" fill="#ff8d8d"/><path d="M216.001,180.233c-39.339-1.549-79.257-5.621-117.451-13.713   c-12.282-2.603-23.551-5.503-33.634-8.658C30.578,147.117,10,133.419,10,118.5v57.997v48.133   c0,31.056,89.162,56.822,206.001,61.676V180.233z" fill="#fd4a4a"/><path d="M216.001,180.233v106.072c13.019,0.541,26.38,0.822,40,0.822c0.006,0,0.011,0,0.017,0   c13.615,0,26.971-0.281,39.983-0.822v-106.08c-13.465,0.534-26.837,0.771-40,0.771   C242.797,180.997,229.433,180.762,216.001,180.233z" fill="#ffa655"/><g><path d="M296.001,180.226v106.08c22.976-0.955,44.882-2.718,65.25-5.17    c54.857-9.065,56.89-102.766-3.581-105.602C337.168,177.92,316.477,179.415,296.001,180.226z" fill="#fd4a4a"/><path d="M357.67,175.532c60.471,2.837,58.438,96.538,3.581,105.602c6.171-0.744,12.201-1.55,18.077-2.417    c73.35-10.818,122.674-30.99,122.674-54.088v-106.13c0,14.919-20.578,28.618-54.916,39.363    c-9.814,3.071-20.752,5.901-32.656,8.449C395.897,170.28,376.866,173.297,357.67,175.532z" fill="#fd4a4a"/></g><path d="M256.001,406.002c-11.045,0-20-8.955-20-20c0-11.046,8.955-20,20-20c11.046,0,20,8.954,20,20   C276.001,397.047,267.047,406.002,256.001,406.002L256.001,406.002z M326.002,385.894c-0.059-38.61-31.377-69.893-70.001-69.893   c-38.659,0-70,31.34-70,70.001c0,38.659,31.341,70,70,70c38.66,0,70.001-31.341,70.001-70   C326.002,385.966,326.002,385.93,326.002,385.894z" fill="#fec478"/><circle cx="256" cy="386" r="20" fill="#9d7463"/></g><path d="M432.412,64.615c-47.245-12.002-109.896-18.613-176.411-18.613S126.835,52.612,79.59,64.615C26.778,78.032,0,96.161,0,118.5  v58.043c0,0.022,0,0.043,0,0.065v48.021c0,22.338,26.778,40.467,79.59,53.885c44.872,11.399,103.644,17.931,166.422,18.559  l-0.006,9.575c-36.13,4.526-64.829,33.225-69.357,69.354h-1.859c-5.522,0-10,4.477-10,10s4.478,10,10,10h1.859  c4.939,39.406,38.629,70,79.353,70c40.761,0,74.476-30.649,79.367-70.108h1.845c5.523,0,10-4.477,10-10s-4.477-10-10-10h-1.872  c-4.571-36.075-33.245-64.718-69.335-69.245l0.006-9.579c10.065-0.103,20.074-0.357,29.971-0.766c0.006,0,0.012,0.001,0.018,0.001  c0.045,0,0.089-0.006,0.134-0.007c22.791-0.945,44.968-2.695,65.858-5.193c0.295-0.022,0.591-0.056,0.888-0.104  c0.012-0.002,0.023-0.005,0.036-0.007c6.068-0.733,12.04-1.523,17.87-2.383c49.005-7.228,131.215-25.15,131.215-63.982v-106.13  C512.002,96.161,485.224,78.032,432.412,64.615z M20,224.63v-32.017c18.782,8.722,39.739,16.285,62.536,22.545  c0.886,0.243,1.776,0.359,2.653,0.359c4.392,0,8.418-2.915,9.637-7.355c1.463-5.326-1.669-10.828-6.995-12.291  c-25.235-6.929-48.016-15.489-67.831-25.47v-21.756c11.157,7.576,25.954,13.722,41.669,18.667c0.145,0.05,0.291,0.095,0.438,0.138  c11.331,3.545,23.126,6.47,34.37,8.852c33.327,7.061,69.487,11.516,109.523,13.495v86.029  c-45.776-2.413-87.777-8.133-121.486-16.697C33.588,246.192,20,231.356,20,224.63z M392.599,223.028  c1.347,20.953-9.454,44.166-32.686,48.184c-17.19,2.063-35.291,3.605-53.911,4.595v-86.044c17.933-0.902,35.188-2.303,51.72-4.201  C381.716,186.955,391.486,205.721,392.599,223.028z M357.039,165.515c-0.795-0.003-1.568,0.086-2.313,0.26  c-30.441,3.462-63.441,5.221-98.726,5.221c-59.266,0-110.09-4.664-155.379-14.259c-0.056-0.012-0.109-0.024-0.164-0.036  c43.039-11.689,97.748-18.197,155.543-18.197c57.789,0,112.493,6.506,155.53,18.193C394.463,160.324,376.27,163.264,357.039,165.515  z M256.006,396.002c-0.002,0-0.003-0.001-0.005-0.001c-0.002,0-0.003,0.001-0.005,0.001c-5.512-0.003-9.995-4.487-9.995-10  c0-5.514,4.486-10,10-10s10,4.486,10,10C266.001,391.515,261.518,395.999,256.006,396.002z M315.133,375.894h-8.525  c-5.523,0-10,4.477-10,10s4.477,10,10,10h8.564c-4.189,25.135-24.05,45.025-49.171,49.259v-30.871c11.639-4.128,20-15.244,20-28.28  c0-16.542-13.458-30-30-30s-30,13.458-30,30c0,13.036,8.361,24.152,20,28.28v30.871c-25.084-4.228-44.923-24.066-49.15-49.15h8.544  c5.522,0,10-4.477,10-10s-4.478-10-10-10h-8.544c4.775-28.336,29.469-49.995,59.14-50c0.002,0,0.004,0,0.005,0  c0.002,0,0.004,0,0.006,0c0.002,0,0.004,0,0.007,0C285.644,326.005,310.313,347.61,315.133,375.894z M256.046,237.588  c-0.002,0-0.004,0-0.006,0c-5.52,0-9.997,4.474-10,9.994l-0.017,29.491c-6.728-0.068-13.408-0.202-20.022-0.407v-86.094  c9.774,0.275,19.756,0.424,30,0.424c10.188,0,20.18-0.155,30-0.441v86.096c-6.621,0.208-13.285,0.348-19.978,0.418l0.017-29.475  C266.043,242.071,261.568,237.591,256.046,237.588z M492.002,224.63c0,9.872-24.493,27.675-90.05,40.148  c7.825-12.385,11.595-27.646,10.605-43.033c-0.974-15.144-6.957-30.537-18.286-41.389c7.597-1.308,15.031-2.72,22.252-4.266  c10.903-2.335,22.331-5.186,33.338-8.629c0.104-0.03,0.205-0.065,0.307-0.098c15.754-4.948,30.626-11.113,41.834-18.724  L492.002,224.63L492.002,224.63z M447.339,147.242c-48.021-18.282-117.442-28.736-191.338-28.736  c-73.926,0-143.374,10.463-191.396,28.758C30.174,135.958,20,124.184,20,118.5c0-6.727,13.588-21.563,64.515-34.5  c45.682-11.606,106.583-17.997,171.486-17.997S381.806,72.394,427.487,84c50.927,12.938,64.515,27.774,64.515,34.5  C492.002,126.122,477.806,137.219,447.339,147.242z"/><path d="M115.853,202.631l-0.241-0.051c-5.409-1.114-10.666,2.374-11.78,7.784c-1.114,5.409,2.397,10.702,7.806,11.817  c0.711,0.153,1.419,0.227,2.117,0.227c4.608,0,8.754-3.205,9.766-7.893C124.684,209.116,121.251,203.795,115.853,202.631z"/></g><g transform="matrix(0.1171872690320015 0 0 0.1171872690320015 24 310.00000137328834)" id="L1_5"><g><path d="M61.014,255.999c0-107.688,87.299-194.987,194.987-194.987   c107.687,0,194.987,87.299,194.987,194.987s-87.3,194.987-194.987,194.987C148.312,450.986,61.014,363.688,61.014,255.999   L61.014,255.999z M310.657,31.165l-35.66-17.269c-14.976-6.494-31.291-3.514-37.862-0.579l-46.218,20.641l-39.515,2.876   c-16.217,1.864-28.856,12.603-33.081,18.431L88.616,96.248l-32.785,22.248c-13.112,9.722-18.689,25.342-19.433,32.501   l-5.234,50.346l-17.267,35.661c-6.495,14.976-3.514,31.291-0.579,37.862l20.641,46.217l2.875,39.517   c1.864,16.217,12.603,28.856,18.431,33.08l40.984,29.705l22.247,32.784c9.723,13.113,25.343,18.689,32.502,19.434l50.346,5.233   l35.66,17.269c14.976,6.495,31.292,3.514,37.863,0.579l46.217-20.641l39.516-2.876c16.217-1.864,28.856-12.602,33.081-18.431   l29.704-40.983l32.785-22.248c13.112-9.722,18.688-25.342,19.434-32.501l5.233-50.346l17.269-35.66   c6.494-14.976,3.514-31.292,0.579-37.863l-20.641-46.217l-2.876-39.517c-1.864-16.216-12.603-28.856-18.431-33.08l-40.985-29.704   l-22.249-32.785c-9.723-13.112-25.343-18.688-32.502-19.433L310.657,31.165z" fill="#ffa655"/><path d="M256.001,61.012c-107.688,0-194.987,87.299-194.987,194.987s87.299,194.987,194.987,194.987   c107.687,0,194.987-87.299,194.987-194.987S363.687,61.012,256.001,61.012L256.001,61.012z M177.278,186.666   c14.812,0,26.819,13.014,26.819,29.066s-12.007,29.065-26.819,29.065s-26.819-13.013-26.819-29.065   S162.466,186.666,177.278,186.666L177.278,186.666z M256.001,150.333c14.811,0,26.819,13.014,26.819,29.065   c0,16.054-12.008,29.066-26.819,29.066c-14.812,0-26.819-13.013-26.819-29.066C229.181,163.347,241.189,150.333,256.001,150.333   L256.001,150.333z M256.001,254.572c29.453,0,53.329,23.973,53.329,53.546s-23.876,53.547-53.329,53.547   s-53.33-23.974-53.33-53.547S226.548,254.572,256.001,254.572L256.001,254.572z M334.722,186.666   c14.812,0,26.819,13.014,26.819,29.066s-12.007,29.065-26.819,29.065s-26.819-13.013-26.819-29.065S319.91,186.666,334.722,186.666   z" fill="#fec478"/><g><ellipse cx="177px" cy="215px" rx="26px" ry="29px" fill="#ffceac"/><ellipse cx="256px" cy="179px" rx="26px" ry="29px" fill="#ffceac"/><ellipse cx="334px" cy="215px" rx="26px" ry="29px" fill="#ffceac"/><ellipse cx="256px" cy="308px" rx="53px" ry="53px" fill="#ffceac"/></g></g><path d="M507.813,233.055l-19.926-44.614l-2.749-37.767c-0.01-0.139-0.023-0.276-0.039-0.415  c-2.353-20.475-15.743-35.141-22.495-40.034l-39.562-28.677l-21.264-31.332c-0.078-0.115-0.159-0.229-0.242-0.341  c-12.273-16.554-31.203-22.56-39.498-23.423L313.437,21.4L279.355,4.897c-0.126-0.061-0.252-0.119-0.38-0.175  c-7.201-3.122-15.134-4.705-23.578-4.705c-8.14,0-16.492,1.559-22.339,4.17l-44.616,19.925l-37.765,2.749  c-0.139,0.01-0.278,0.023-0.417,0.039c-20.474,2.354-35.14,15.744-40.035,22.496L81.55,88.959l-31.333,21.263  c-0.115,0.078-0.229,0.159-0.34,0.241c-16.556,12.275-22.56,31.205-23.422,39.499l-5.053,48.602L4.898,232.645  c-0.061,0.125-0.119,0.252-0.174,0.38c-8.199,18.906-3.936,38.303-0.536,45.919l19.925,44.615l2.747,37.766  c0.01,0.139,0.024,0.278,0.039,0.416c2.354,20.477,15.745,35.141,22.496,40.034l39.564,28.676l21.263,31.332  c0.078,0.115,0.159,0.229,0.242,0.341c12.276,16.557,31.206,22.561,39.5,23.423l48.6,5.053l34.082,16.503  c0.125,0.061,0.251,0.119,0.379,0.175c7.201,3.122,15.134,4.706,23.578,4.706c8.14,0,16.492-1.56,22.341-4.171l44.614-19.925  l37.766-2.749c0.14-0.01,0.278-0.023,0.416-0.039c20.477-2.353,35.141-15.744,40.035-22.496l28.675-39.562l31.333-21.264  c0.115-0.078,0.228-0.159,0.341-0.241c16.556-12.275,22.559-31.205,23.422-39.499l5.053-48.601l16.504-34.081  c0.061-0.126,0.119-0.252,0.175-0.38C515.476,260.068,511.212,240.671,507.813,233.055z M489.006,270.839l-17.171,35.46  c-0.506,1.045-0.826,2.17-0.946,3.324l-5.234,50.346c-0.514,4.944-4.926,17.612-15.287,25.387l-32.6,22.122  c-0.961,0.651-1.801,1.466-2.481,2.406l-29.704,40.982c-2.917,4.024-13.072,12.788-25.932,14.343l-39.294,2.859  c-1.158,0.084-2.292,0.369-3.353,0.843l-46.216,20.641c-2.023,0.903-7.289,2.433-14.187,2.433c-5.619,0-10.813-1.002-15.443-2.978  l-35.46-17.17c-1.044-0.506-2.169-0.826-3.324-0.946l-50.346-5.234c-4.943-0.514-17.61-4.926-25.386-15.286l-22.122-32.601  c-0.652-0.961-1.466-1.8-2.406-2.481l-40.984-29.705c-4.024-2.917-12.788-13.071-14.342-25.931l-2.859-39.294  c-0.085-1.158-0.37-2.292-0.843-3.353l-20.641-46.217c-2.026-4.538-4.539-17.715,0.545-29.627l17.171-35.461  c0.506-1.045,0.826-2.17,0.946-3.324l5.234-50.347c0.514-4.944,4.926-17.612,15.287-25.387l32.6-22.122  c0.961-0.651,1.8-1.466,2.481-2.406l29.703-40.982c2.917-4.024,13.074-12.788,25.933-14.343l39.293-2.859  c1.158-0.084,2.292-0.369,3.352-0.843l46.217-20.641c2.023-0.903,7.287-2.433,14.185-2.433c5.62,0,10.813,1.002,15.443,2.979  l35.459,17.171c1.045,0.506,2.17,0.826,3.324,0.946l50.346,5.233c4.943,0.515,17.612,4.929,25.387,15.287l22.123,32.6  c0.651,0.961,1.466,1.8,2.406,2.481l40.982,29.705c4.024,2.917,12.788,13.071,14.342,25.931l2.86,39.295  c0.084,1.158,0.369,2.292,0.843,3.353l20.641,46.216C491.579,245.748,494.09,258.926,489.006,270.839z"/><path d="M256.001,244.573c-34.92,0-63.33,28.507-63.33,63.546c0,35.04,28.41,63.547,63.33,63.547s63.329-28.507,63.329-63.547  S290.92,244.573,256.001,244.573z M256.001,351.665c-23.893,0-43.331-19.536-43.331-43.548s19.438-43.547,43.331-43.547  c23.892,0,43.33,19.535,43.33,43.547S279.892,351.665,256.001,351.665z"/><path d="M256.001,218.464c20.303,0,36.818-17.525,36.818-39.065s-16.517-39.064-36.818-39.064s-36.818,17.524-36.818,39.064  S235.699,218.464,256.001,218.464z M256.001,160.332c9.274,0,16.82,8.553,16.82,19.066c0,10.514-7.546,19.067-16.82,19.067  s-16.82-8.553-16.82-19.067C239.18,168.886,246.725,160.332,256.001,160.332z"/><path d="M334.722,176.666c-20.303,0-36.818,17.525-36.818,39.065s16.516,39.064,36.818,39.064c20.303,0,36.818-17.524,36.818-39.064  S355.025,176.666,334.722,176.666z M334.722,234.798c-9.274,0-16.82-8.553-16.82-19.066c0-10.514,7.545-19.067,16.82-19.067  s16.82,8.553,16.82,19.067C351.543,226.245,343.998,234.798,334.722,234.798z"/><path d="M177.278,254.797c20.302,0,36.818-17.524,36.818-39.064s-16.517-39.065-36.818-39.065s-36.818,17.525-36.818,39.065  S156.977,254.797,177.278,254.797z M177.278,196.665c9.274,0,16.82,8.553,16.82,19.067s-7.546,19.066-16.82,19.066  c-9.274,0-16.82-8.553-16.82-19.066C160.458,205.218,168.004,196.665,177.278,196.665z"/><path d="M256.001,51.013c-113.029,0-204.986,91.957-204.986,204.986s91.957,204.986,204.986,204.986s204.986-91.957,204.986-204.986  S369.03,51.013,256.001,51.013z M256.001,440.986c-102.002,0-184.987-82.984-184.987-184.987S153.999,71.012,256.001,71.012  c102.003,0,184.987,82.984,184.987,184.987S358.004,440.986,256.001,440.986z"/><path d="M158.408,369.898c-18.654-15.983-33.231-36.53-42.153-59.418c-2.006-5.147-7.803-7.689-12.948-5.686  c-5.146,2.007-7.689,7.803-5.685,12.948c10.112,25.94,26.632,49.226,47.774,67.341c1.886,1.615,4.199,2.406,6.502,2.406  c2.818,0,5.621-1.185,7.597-3.493C163.088,379.803,162.601,373.491,158.408,369.898z"/><path d="M181.076,385.936c-0.032-0.019-0.068-0.039-0.1-0.058c-4.761-2.799-10.888-1.212-13.688,3.549  c-2.8,4.761-1.212,10.889,3.549,13.688c0.025,0.015,0.095,0.055,0.134,0.077c1.583,0.924,3.316,1.363,5.027,1.363  c3.427,0,6.765-1.764,8.627-4.932C187.424,394.863,185.836,388.735,181.076,385.936z"/></g><g transform="matrix(0.1171877309679985 0 0 0.1171877309679985 30 123.00000082969837)" id="L1_6"><g><path d="M256,208.463c-14.814,0-26.821-13.015-26.821-29.068s12.008-29.067,26.821-29.067   c14.813,0,26.82,13.014,26.82,29.067S270.813,208.463,256,208.463L256,208.463z M334.728,244.798   c-14.813,0-26.821-13.015-26.821-29.068c0-16.054,12.008-29.068,26.821-29.068s26.821,13.015,26.821,29.068   C361.549,231.783,349.541,244.798,334.728,244.798L334.728,244.798z M177.271,186.661c14.814,0,26.821,13.015,26.821,29.068   c0,16.054-12.008,29.068-26.821,29.068s-26.821-13.015-26.821-29.068S162.459,186.661,177.271,186.661L177.271,186.661z    M256,254.571c29.455,0,53.333,23.976,53.333,53.551s-23.878,53.55-53.333,53.55c-29.456,0-53.334-23.975-53.334-53.55   S226.544,254.571,256,254.571L256,254.571z M72.709,443.535c45.937-16.014,114.039,0.236,183.291,0.236   c69.251,0,137.353-16.25,183.29-0.236c21.74,7.579,42.034,21.743,56.243,3.661c10.775-13.713,1.727-33.233-3.786-51.753   c-9.116-30.626,10.252-68.757,10.252-139.443c0-70.688-19.368-108.818-10.252-139.444c5.513-18.519,14.561-38.04,3.786-51.753   c-14.209-18.082-34.503-3.918-56.243,3.661C393.353,84.478,325.251,68.228,256,68.228c-69.252,0-137.354,16.25-183.291,0.236   c-21.74-7.579-42.035-21.743-56.244-3.661c-10.775,13.713-1.726,33.234,3.787,51.753C29.368,147.182,10,185.312,10,256   c0,70.687,19.368,108.817,10.252,139.443c-5.513,18.52-14.563,38.04-3.787,51.753C30.674,465.278,50.969,451.114,72.709,443.535z" fill="#e0ac91"/><g><ellipse cx="177px" cy="215px" rx="26px" ry="29px" fill="#fd4a4a"/><ellipse cx="256px" cy="179px" rx="26px" ry="29px" fill="#fd4a4a"/><ellipse cx="334px" cy="215px" rx="26px" ry="29px" fill="#fd4a4a"/><ellipse cx="256px" cy="308px" rx="53px" ry="53px" fill="#fd4a4a"/></g></g><path d="M501.331,392.591c-4.108-13.802-1.333-30.374,2.507-53.31c3.636-21.716,8.161-48.742,8.161-83.281  s-4.525-61.566-8.161-83.282c-3.84-22.935-6.614-39.508-2.507-53.309c0.803-2.696,1.677-5.395,2.603-8.25  c5.575-17.209,11.896-36.713-0.538-52.535c-6.582-8.377-15.064-12.625-25.206-12.625c-10.036,0-20.3,4.238-30.226,8.337  c-3.934,1.624-8.002,3.304-11.966,4.686c-12.719,4.434-28.189,6.499-48.686,6.499c-18.268,0-38.16-1.641-59.221-3.377  c-23.346-1.925-47.485-3.916-72.091-3.916c-24.608,0-48.748,1.991-72.093,3.916c-21.059,1.736-40.951,3.377-59.22,3.377  c-20.497,0-35.968-2.066-48.687-6.499c-3.965-1.382-8.032-3.062-11.966-4.686c-9.926-4.099-20.19-8.337-30.226-8.337  c-10.144,0-18.625,4.248-25.208,12.625c-12.43,15.821-6.111,35.325-0.535,52.533c0.925,2.856,1.8,5.555,2.603,8.251  c4.108,13.802,1.333,30.374-2.507,53.309C4.525,194.434,0,221.461,0,256s4.525,61.566,8.161,83.281  c3.84,22.935,6.615,39.508,2.507,53.31c-0.803,2.697-1.678,5.396-2.604,8.253c-5.575,17.207-11.895,36.71,0.538,52.531  C15.186,461.753,23.667,466,33.81,466c10.036-0.001,20.3-4.239,30.227-8.337c3.934-1.624,8.001-3.304,11.965-4.686  c12.719-4.434,28.189-6.499,48.687-6.499c18.268,0,38.16,1.641,59.221,3.377c23.346,1.925,47.486,3.916,72.092,3.916  c24.607,0,48.747-1.991,72.092-3.916c21.06-1.736,40.951-3.377,59.22-3.377c20.497,0,35.968,2.065,48.686,6.499  c3.965,1.383,8.032,3.062,11.967,4.687c9.925,4.098,20.188,8.336,30.225,8.336c10.142,0,18.624-4.248,25.207-12.625  c12.432-15.821,6.112-35.325,0.537-52.533C503.009,397.985,502.134,395.287,501.331,392.591z M482.163,398.296  c0.871,2.927,1.823,5.867,2.745,8.711c5.2,16.05,8.202,27.089,2.763,34.011c-3.441,4.379-6.591,4.982-9.481,4.982  c-6.069,0-14.096-3.313-22.592-6.822c-4.189-1.73-8.521-3.519-13.016-5.085c-14.9-5.194-32.464-7.614-55.271-7.614  c-19.092,0-39.382,1.674-60.863,3.445c-22.941,1.892-46.664,3.848-70.448,3.848c-23.782,0-47.506-1.956-70.448-3.848  c-21.482-1.772-41.773-3.445-60.864-3.445c-22.808,0-40.37,2.42-55.271,7.614c-4.494,1.566-8.825,3.354-13.014,5.084  c-8.498,3.509-16.525,6.822-22.595,6.823c-2.891,0-6.04-0.603-9.482-4.982c-5.438-6.922-2.437-17.96,2.764-34.009  c0.921-2.845,1.874-5.785,2.745-8.713c5.43-18.241,2.174-37.691-1.949-62.317C24.373,314.993,20,288.876,20,256  c0-32.877,4.373-58.994,7.887-79.979c4.123-24.626,7.379-44.076,1.949-62.318c-0.871-2.927-1.823-5.866-2.745-8.71  c-5.2-16.051-8.202-27.089-2.764-34.011C27.768,66.603,30.918,66,33.81,66c6.069,0,14.096,3.314,22.593,6.822  c4.188,1.729,8.52,3.519,13.015,5.085c14.9,5.194,32.463,7.614,55.271,7.614c19.092,0,39.382-1.674,60.863-3.445  c22.941-1.892,46.664-3.848,70.449-3.848c23.782,0,47.505,1.956,70.447,3.848c21.482,1.771,41.773,3.445,60.864,3.445  c22.807,0,40.37-2.42,55.271-7.614c4.494-1.566,8.825-3.355,13.015-5.085C464.095,69.314,472.121,66,478.191,66  c2.891,0,6.04,0.604,9.481,4.982c5.44,6.923,2.438,17.962-2.764,34.013c-0.921,2.843-1.873,5.782-2.744,8.709  c-5.43,18.241-2.174,37.691,1.949,62.317C487.627,197.006,492,223.123,492,256c0,32.876-4.373,58.993-7.887,79.979  C479.989,360.604,476.733,380.055,482.163,398.296z"/><path d="M50.944,96.986c-5.294,1.575-8.308,7.144-6.731,12.437c5.125,17.22,3.604,35.168,1.439,50.453  c-0.774,5.469,3.031,10.529,8.499,11.304c0.476,0.067,0.948,0.1,1.415,0.1c4.901,0,9.182-3.606,9.889-8.599  c2.467-17.424,4.15-38.056-2.073-58.963C61.806,98.425,56.235,95.409,50.944,96.986z"/><path d="M256,244.571c-34.923,0-63.334,28.509-63.334,63.551c0,35.041,28.411,63.55,63.334,63.55  c34.922,0,63.333-28.509,63.333-63.55C319.333,273.08,290.922,244.571,256,244.571z M256,351.672  c-23.895,0-43.334-19.536-43.334-43.55s19.439-43.551,43.334-43.551c23.894,0,43.333,19.537,43.333,43.551  S279.894,351.672,256,351.672z"/><path d="M256,218.463c20.303,0,36.82-17.526,36.82-39.068s-16.518-39.067-36.82-39.067c-20.304,0-36.821,17.525-36.821,39.067  S235.696,218.463,256,218.463z M256,160.327c9.274,0,16.82,8.554,16.82,19.067c0,10.515-7.546,19.068-16.82,19.068  c-9.275,0-16.821-8.554-16.821-19.068C239.179,168.881,246.725,160.327,256,160.327z"/><path d="M334.728,176.661c-20.304,0-36.821,17.526-36.821,39.068s16.517,39.068,36.821,39.068c20.304,0,36.821-17.526,36.821-39.068  S355.031,176.661,334.728,176.661z M334.728,234.798c-9.275,0-16.821-8.554-16.821-19.068c0-10.515,7.546-19.068,16.821-19.068  s16.821,8.554,16.821,19.068C351.549,226.244,344.003,234.798,334.728,234.798z"/><path d="M214.093,215.729c0-21.542-16.518-39.068-36.821-39.068s-36.821,17.526-36.821,39.068s16.518,39.068,36.821,39.068  S214.093,237.271,214.093,215.729z M177.271,234.798c-9.275,0-16.821-8.554-16.821-19.068c0-10.515,7.546-19.068,16.821-19.068  s16.821,8.554,16.821,19.068C194.093,226.244,186.547,234.798,177.271,234.798z"/><path d="M466.349,352.123c0.774-5.468-3.03-10.528-8.499-11.304c-5.458-0.771-10.528,3.03-11.304,8.499  c-2.468,17.423-4.152,38.054,2.072,58.963c1.292,4.342,5.271,7.15,9.58,7.15c0.944,0,1.905-0.136,2.856-0.419  c5.294-1.575,8.308-7.144,6.731-12.437C462.66,385.355,464.183,367.408,466.349,352.123z"/><path d="M460.932,331.898h0.324c5.522,0,10-4.478,10-10s-4.478-10-10-10h-0.324c-5.522,0-10,4.478-10,10  S455.409,331.898,460.932,331.898z"/><path d="M50.743,200.1h0.324c5.522,0,10-4.478,10-10s-4.478-10-10-10h-0.324c-5.522,0-10,4.478-10,10  C40.743,195.622,45.221,200.1,50.743,200.1z"/></g><g transform="matrix(0.11718704551458359 0 0 0.11718704551458359 288 35.99999862671439)" id="L1_7"><g><path d="M143.821,276.003h232c19-122.299-139-42.702-157-135.702   C95.821,176.301,143.821,276.003,143.821,276.003z" fill="#ffceac"/><path d="M375.821,276.003h-232h-17.82c-27.5,0-50,22.5-50,50s22.5,50,50,50h260c27.5,0,50-22.5,50-50   s-22.5-50-50-50H375.821z" fill="#e0ac91"/><path d="M386.001,376.003h-260H60c-27.5,0-50,22.5-50,50s22.5,50,50,50h392.002c27.501,0,50-22.5,50-50   s-22.499-50-50-50H386.001z" fill="#9d7463"/></g><path d="M452.002,366.003h-21.328c9.522-10.623,15.327-24.645,15.327-40c0-32.734-26.354-59.412-58.957-59.974  c2.094-27.646-5.28-47.47-22.405-60.382c-16.465-12.415-39.441-16.292-61.662-20.041c-41.939-7.077-67.87-13.786-74.338-47.206  c-0.535-2.763-2.21-5.173-4.613-6.638c-2.404-1.466-5.313-1.851-8.014-1.06c-42.357,12.398-70.436,33.521-83.458,62.781  c-12.423,27.918-7.807,56.105-3.005,72.519h-3.548c-33.084,0-60,26.916-60,60c0,15.355,5.805,29.377,15.327,40H60  c-33.084,0-60,26.916-60,60s26.916,60,60,60h392.002c33.084,0,60-26.916,60-60C512.002,392.919,485.086,366.003,452.002,366.003z   M150.827,201.615c9.551-21.462,30.059-37.779,61.028-48.59c5.696,16.703,16.582,29.009,33.041,37.436  c16.394,8.393,35.895,11.684,54.754,14.866c45.303,7.645,71.647,14.502,67.349,60.676h-216.43  C146.481,254.555,139.303,227.51,150.827,201.615z M86.001,326.003c0-22.056,17.944-40,40-40l0,0c0.009,0-0.009,0,0,0  c0.012,0-0.012,0,0,0h260c22.056,0,40,17.944,40,40s-17.944,40-40,40h-260C103.945,366.003,86.001,348.058,86.001,326.003z   M452.002,466.003H60c-22.056,0-40-17.944-40-40s17.944-40,40-40l0,0h392.002l0,0c22.056,0,40,17.944,40,40  C492.002,448.058,474.058,466.003,452.002,466.003z"/><path d="M248.039,99.827c-2.761,4.782-1.123,10.898,3.66,13.66c1.575,0.909,3.294,1.342,4.991,1.342  c3.455,0,6.817-1.794,8.669-5.002c9.596-16.619,4.69-30.888,0.748-42.353c-3.821-11.114-5.74-17.823-0.748-26.472  c2.761-4.783,1.123-10.898-3.66-13.66c-4.784-2.761-10.898-1.124-13.66,3.66c-9.79,16.958-4.831,31.384-0.845,42.976  C250.953,84.911,252.846,91.502,248.039,99.827z"/><path d="M71.687,149.829c-2.761,4.782-1.123,10.898,3.66,13.66c1.575,0.909,3.294,1.342,4.991,1.342  c3.456,0,6.817-1.794,8.669-5.002c9.596-16.619,4.69-30.888,0.748-42.353c-3.821-11.114-5.74-17.823-0.748-26.472  c2.761-4.783,1.123-10.898-3.66-13.66c-4.784-2.761-10.899-1.124-13.66,3.66c-9.79,16.958-4.83,31.384-0.845,42.976  C74.602,134.913,76.495,141.504,71.687,149.829z"/><path d="M423.124,149.829c-2.761,4.782-1.123,10.898,3.66,13.66c1.575,0.909,3.294,1.342,4.991,1.342  c3.456,0,6.817-1.794,8.67-5.002c9.596-16.619,4.69-30.888,0.747-42.353c-3.821-11.114-5.74-17.823-0.747-26.472  c2.761-4.783,1.122-10.898-3.66-13.66c-4.784-2.761-10.898-1.124-13.66,3.66c-9.79,16.958-4.831,31.384-0.845,42.976  C426.038,134.913,427.931,141.504,423.124,149.829z"/><path d="M191.954,301.003h-65.953c-5.523,0-10,4.478-10,10s4.477,10,10,10h65.953c5.523,0,10-4.478,10-10  C201.954,305.48,197.477,301.003,191.954,301.003z"/><path d="M222.001,301.003h-0.324c-5.523,0-10,4.478-10,10s4.477,10,10,10h0.324c5.523,0,10-4.478,10-10  C232.001,305.48,227.524,301.003,222.001,301.003z"/></g></defs><g fi:class="KUsePattern"><pattern id="pattern_L1_0" width="350" height="350" patternUnits="userSpaceOnUse"><use xlink:href="#L1_0" x="-350" y="-350"/><use xlink:href="#L1_0" x="0" y="-350"/><use xlink:href="#L1_0" x="350" y="-350"/><use xlink:href="#L1_0" x="-350" y="0"/><use xlink:href="#L1_0" x="0" y="0"/><use xlink:href="#L1_0" x="350" y="0"/><use xlink:href="#L1_0" x="-350" y="350"/><use xlink:href="#L1_0" x="0" y="350"/><use xlink:href="#L1_0" x="350" y="350"/></pattern><rect x="0" y="0" width="100%" height="100%" fill="url(#pattern_L1_0)"/></g><g fi:class="KUsePattern"><pattern id="pattern_L1_1" width="350" height="350" patternUnits="userSpaceOnUse"><use xlink:href="#L1_1" x="-350" y="-350"/><use xlink:href="#L1_1" x="0" y="-350"/><use xlink:href="#L1_1" x="350" y="-350"/><use xlink:href="#L1_1" x="-350" y="0"/><use xlink:href="#L1_1" x="0" y="0"/><use xlink:href="#L1_1" x="350" y="0"/><use xlink:href="#L1_1" x="-350" y="350"/><use xlink:href="#L1_1" x="0" y="350"/><use xlink:href="#L1_1" x="350" y="350"/></pattern><rect x="0" y="0" width="100%" height="100%" fill="url(#pattern_L1_1)"/></g><g fi:class="KUsePattern"><pattern id="pattern_L1_2" width="350" height="350" patternUnits="userSpaceOnUse"><use xlink:href="#L1_2" x="-350" y="-350"/><use xlink:href="#L1_2" x="0" y="-350"/><use xlink:href="#L1_2" x="350" y="-350"/><use xlink:href="#L1_2" x="-350" y="0"/><use xlink:href="#L1_2" x="0" y="0"/><use xlink:href="#L1_2" x="350" y="0"/><use xlink:href="#L1_2" x="-350" y="350"/><use xlink:href="#L1_2" x="0" y="350"/><use xlink:href="#L1_2" x="350" y="350"/></pattern><rect x="0" y="0" width="100%" height="100%" fill="url(#pattern_L1_2)"/></g><g fi:class="KUsePattern"><pattern id="pattern_L1_3" width="350" height="350" patternUnits="userSpaceOnUse"><use xlink:href="#L1_3" x="-350" y="-350"/><use xlink:href="#L1_3" x="0" y="-350"/><use xlink:href="#L1_3" x="350" y="-350"/><use xlink:href="#L1_3" x="-350" y="0"/><use xlink:href="#L1_3" x="0" y="0"/><use xlink:href="#L1_3" x="350" y="0"/><use xlink:href="#L1_3" x="-350" y="350"/><use xlink:href="#L1_3" x="0" y="350"/><use xlink:href="#L1_3" x="350" y="350"/></pattern><rect x="0" y="0" width="100%" height="100%" fill="url(#pattern_L1_3)"/></g><g fi:class="KUsePattern"><pattern id="pattern_L1_4" width="350" height="350" patternUnits="userSpaceOnUse"><use xlink:href="#L1_4" x="-350" y="-350"/><use xlink:href="#L1_4" x="0" y="-350"/><use xlink:href="#L1_4" x="350" y="-350"/><use xlink:href="#L1_4" x="-350" y="0"/><use xlink:href="#L1_4" x="0" y="0"/><use xlink:href="#L1_4" x="350" y="0"/><use xlink:href="#L1_4" x="-350" y="350"/><use xlink:href="#L1_4" x="0" y="350"/><use xlink:href="#L1_4" x="350" y="350"/></pattern><rect x="0" y="0" width="100%" height="100%" fill="url(#pattern_L1_4)"/></g><g fi:class="KUsePattern"><pattern id="pattern_L1_5" width="350" height="350" patternUnits="userSpaceOnUse"><use xlink:href="#L1_5" x="-350" y="-350"/><use xlink:href="#L1_5" x="0" y="-350"/><use xlink:href="#L1_5" x="350" y="-350"/><use xlink:href="#L1_5" x="-350" y="0"/><use xlink:href="#L1_5" x="0" y="0"/><use xlink:href="#L1_5" x="350" y="0"/><use xlink:href="#L1_5" x="-350" y="350"/><use xlink:href="#L1_5" x="0" y="350"/><use xlink:href="#L1_5" x="350" y="350"/></pattern><rect x="0" y="0" width="100%" height="100%" fill="url(#pattern_L1_5)"/></g><g fi:class="KUsePattern"><pattern id="pattern_L1_6" width="350" height="350" patternUnits="userSpaceOnUse"><use xlink:href="#L1_6" x="-350" y="-350"/><use xlink:href="#L1_6" x="0" y="-350"/><use xlink:href="#L1_6" x="350" y="-350"/><use xlink:href="#L1_6" x="-350" y="0"/><use xlink:href="#L1_6" x="0" y="0"/><use xlink:href="#L1_6" x="350" y="0"/><use xlink:href="#L1_6" x="-350" y="350"/><use xlink:href="#L1_6" x="0" y="350"/><use xlink:href="#L1_6" x="350" y="350"/></pattern><rect x="0" y="0" width="100%" height="100%" fill="url(#pattern_L1_6)"/></g><g fi:class="KUsePattern"><pattern id="pattern_L1_7" width="350" height="350" patternUnits="userSpaceOnUse"><use xlink:href="#L1_7" x="-350" y="-350"/><use xlink:href="#L1_7" x="0" y="-350"/><use xlink:href="#L1_7" x="350" y="-350"/><use xlink:href="#L1_7" x="-350" y="0"/><use xlink:href="#L1_7" x="0" y="0"/><use xlink:href="#L1_7" x="350" y="0"/><use xlink:href="#L1_7" x="-350" y="350"/><use xlink:href="#L1_7" x="0" y="350"/><use xlink:href="#L1_7" x="350" y="350"/></pattern><rect x="0" y="0" width="100%" height="100%" fill="url(#pattern_L1_7)"/></g></svg>